# xmcd
#
# Track frame offsets: 
#        150
#        18905
#        37055
#        71522
#        104937
#        144420
#        169952
#        196257
#        222634
#        251545
#        280157
#
# Disc length: 4019 seconds
#
# Revision: 0
# Processed by: cddbd v1.5.1PL0 Copyright (c) Steve Scherf et al.
# Submitted via: ExactAudioCopy v0.95a5
#
DISCID=ac0fb10b
DTITLE=Miles Davis - Out of the blue
DYEAR=2001
DGENRE=Blues
TTITLE0=Conception
TTITLE1=Max Is Making Wax
TTITLE2=Half Nelson
TTITLE3=Down
TTITLE4=The Squirrel
TTITLE5=Lady Bird
TTITLE6=Confirmation
TTITLE7=Out Of The Blue
TTITLE8=Wee Dot
TTITLE9=The Chase
TTITLE10=It Could Happen To You
EXTD=
EXTT0=
EXTT1=
EXTT2=
EXTT3=
EXTT4=
EXTT5=
EXTT6=
EXTT7=
EXTT8=
EXTT9=
EXTT10=
PLAYORDER=
